# xmcd CD database file
#
# Track frame offsets:
#	150
#	12283
#	22701
#	38810
#	52254
#	73097
#	90886
#	109408
#	122607
#	135792
#	158283
#	183237
#
# Disc length: 2708 seconds
#
# Revision: 1
# Processed by: cddbd v1.5.2PL0 Copyright (c) Steve Scherf et al.
# Submitted via: CDex 1.40Beta8
#
DISCID=870a920c
DTITLE=Jubal Foster - Jubal Foster
DYEAR=2002
DGENRE=Country
TTITLE0=Nothin' Helps
TTITLE1=I've Just Seen A Face
TTITLE2=Six Days From Sunday
TTITLE3=Savin'Up For A Cadillac
TTITLE4=Reason To Cry
TTITLE5=The Girl I Used To Know
TTITLE6=If It Ain't Love
TTITLE7=Ragin' River
TTITLE8=Stranger Things Have Happened
TTITLE9=I Know You Rider
TTITLE10=Blue Mountain
TTITLE11=Hard Price To Pay
EXTD=YEAR: 2002 ID3G: 2
EXTT0=
EXTT1=
EXTT2=
EXTT3=
EXTT4=
EXTT5=
EXTT6=
EXTT7=
EXTT8=
EXTT9=
EXTT10=
EXTT11=
PLAYORDER=
